<svg width="16" height="16" viewBox="0 0 16 16" fill="none" xmlns="http://www.w3.org/2000/svg">
<rect width="16" height="16" fill="url(#paint0_radial_7_69)"/>
<path d="M15.1831 13.5131C14.5508 13.8293 13.8779 13.9873 13.1645 13.9873C12.5322 13.9873 11.9566 13.8901 11.4377 13.6955C10.319 13.2821 9.36645 12.4754 8.58009 11.2756C8.37742 10.9838 8.00046 10.4244 7.44919 9.59751C6.89793 8.77062 6.54123 8.24367 6.3791 8.01668C6.09536 7.57081 5.86837 7.3276 5.69812 7.28707V7.16547C5.70623 7.16547 5.71434 7.16547 5.72244 7.16547C5.73866 7.16547 5.75487 7.16547 5.77109 7.16547C5.7873 7.16547 5.80351 7.16547 5.81973 7.16547C5.83594 7.16547 5.85621 7.16547 5.88053 7.16547C5.90485 7.16547 5.92511 7.16547 5.94133 7.16547C6.35477 7.16547 6.73579 7.07224 7.08439 6.88578C7.61133 6.59394 7.8748 6.05484 7.8748 5.26848C7.8748 4.69289 7.71267 4.25107 7.38839 3.94301C7.06412 3.62685 6.67499 3.46877 6.22101 3.46877H5.29684V10.5582C5.29684 10.7689 5.37385 10.9513 5.52788 11.1054C5.68191 11.2513 5.86431 11.3243 6.07509 11.3243H6.23317V11.4459H2.53647V11.3243H2.69455C2.89722 11.3243 3.07557 11.2513 3.2296 11.1054C3.38363 10.9595 3.4647 10.7811 3.47281 10.5703V3.82141C3.4647 3.61063 3.38363 3.43228 3.2296 3.28636C3.08368 3.13233 2.90533 3.05532 2.69455 3.05532H2.53647V2.93372H6.70742C7.7532 2.93372 8.56388 3.17287 9.13946 3.65117C9.59344 4.02408 9.82043 4.55102 9.82043 5.232C9.82043 5.91297 9.5975 6.46828 9.15162 6.89794C8.71386 7.3195 8.21123 7.53027 7.64376 7.53027C7.59512 7.53027 7.54242 7.52622 7.48567 7.51811C7.81805 7.69646 8.09368 7.89508 8.31257 8.11396C8.53956 8.33285 8.73412 8.53957 8.89626 8.73414C9.0665 8.9287 9.20837 9.10299 9.32187 9.25702C9.44347 9.40295 9.60155 9.60156 9.79611 9.85287C9.99068 10.0961 10.1933 10.3514 10.4041 10.619C10.6149 10.8865 10.8459 11.1621 11.0973 11.4459C11.3567 11.7215 11.6404 11.985 11.9485 12.2363C12.2646 12.4876 12.5849 12.6943 12.9091 12.8564C13.5982 13.205 14.3562 13.3834 15.1831 13.3915V13.5131Z" fill="#000B19"/>
<defs>
<radialGradient id="paint0_radial_7_69" cx="0" cy="0" r="1" gradientUnits="userSpaceOnUse" gradientTransform="translate(8 8) rotate(-45) scale(11.3137)">
<stop offset="0.302083" stop-color="#FF3254"/>
<stop offset="0.953125" stop-color="#000B19"/>
</radialGradient>
</defs>
</svg>
